<?xml version="1.0" standalone="no"?>
<!DOCTYPE svg PUBLIC "-//W3C//DTD SVG 20010904//EN"
 "http://www.w3.org/TR/2001/REC-SVG-20010904/DTD/svg10.dtd">
<svg version="1.0" xmlns="http://www.w3.org/2000/svg"
 width="500.000000pt" height="281.000000pt" viewBox="0 0 500.000000 281.000000"
 preserveAspectRatio="xMidYMid meet">

<g transform="translate(0.000000,281.000000) scale(0.100000,-0.100000)"
fill="#000000" stroke="none">
<path d="M1640 1435 l0 -205 40 0 40 0 0 205 0 205 -40 0 -40 0 0 -205z"/>
<path d="M2802 1624 c-24 -17 -29 -53 -10 -72 19 -19 66 -15 78 7 14 28 13 38
-10 61 -24 24 -29 24 -58 4z"/>
<path d="M4312 1628 c-43 -21 -41 -86 4 -107 41 -18 78 5 82 51 2 28 -2 40
-20 52 -26 18 -34 19 -66 4z"/>
<path d="M1851 1502 c-47 -23 -72 -61 -78 -114 -10 -84 45 -149 130 -156 65
-5 109 14 138 61 29 46 23 136 -12 173 -48 53 -118 67 -178 36z m111 -89 c39
-35 11 -103 -44 -103 -31 0 -68 31 -68 58 0 10 7 28 16 40 18 27 69 30 96 5z"/>
<path d="M2185 1506 c-73 -32 -103 -113 -72 -189 28 -67 129 -100 185 -61 20
14 22 14 22 -3 0 -10 -7 -29 -16 -41 -18 -26 -69 -30 -99 -8 -16 12 -24 11
-52 -2 -40 -19 -41 -25 -7 -51 55 -44 139 -46 200 -6 44 29 54 71 54 225 l0
140 -39 0 c-22 0 -41 -5 -43 -12 -3 -8 -11 -7 -28 5 -29 20 -64 21 -105 3z
m103 -73 c35 -30 38 -68 8 -97 -32 -33 -60 -33 -91 -1 -33 32 -32 68 1 94 33
26 55 26 82 4z"/>
<path d="M2520 1498 c-51 -35 -73 -71 -73 -120 0 -88 58 -148 144 -148 119 0
188 133 119 230 -42 59 -132 77 -190 38z m120 -84 c20 -23 16 -75 -5 -90 -63
-46 -140 31 -88 88 20 22 76 24 93 2z"/>
<path d="M3038 1505 c-16 -9 -28 -11 -28 -5 0 5 -18 10 -40 10 l-40 0 0 -195
0 -195 40 0 40 0 0 66 c0 59 2 65 18 58 40 -18 107 -15 140 6 82 51 81 191 -2
245 -36 24 -96 28 -128 10z m87 -90 c30 -29 32 -55 7 -86 -23 -27 -75 -30 -99
-6 -24 24 -21 76 6 99 31 25 57 23 86 -7z"/>
<path d="M3330 1513 c-36 -14 -60 -47 -60 -83 0 -44 19 -64 83 -86 26 -9 47
-22 47 -30 0 -19 -45 -18 -64 2 -14 14 -19 14 -46 -3 -37 -21 -38 -35 -4 -62
39 -31 133 -30 168 2 61 52 36 122 -54 152 -28 9 -50 21 -50 26 0 18 31 21 48
6 16 -15 21 -15 51 4 l34 21 -25 25 c-26 25 -95 40 -128 26z"/>
<path d="M3962 1504 c-12 -8 -22 -10 -22 -5 0 6 -20 11 -45 11 l-46 0 3 -137
3 -138 40 0 40 0 3 89 c3 96 11 116 47 116 30 0 35 -16 35 -121 l0 -89 40 0
40 0 0 79 c0 98 11 131 43 131 40 0 47 -18 47 -117 l0 -93 41 0 41 0 -4 116
-3 116 -33 29 c-37 33 -84 38 -121 13 -22 -16 -25 -16 -51 0 -35 20 -69 20
-98 0z"/>
<path d="M2790 1370 l0 -140 40 0 40 0 0 140 0 140 -40 0 -40 0 0 -140z"/>
<path d="M3530 1399 c0 -109 0 -111 29 -140 24 -23 38 -29 73 -29 24 0 50 6
57 13 11 10 14 10 18 0 3 -8 22 -13 44 -13 l39 0 0 140 0 140 -40 0 -40 0 0
-88 c0 -73 -3 -92 -18 -105 -23 -21 -46 -22 -66 -1 -12 12 -16 37 -16 105 l0
89 -40 0 -40 0 0 -111z"/>
</g>
</svg>
